# xmcd
#
# Track frame offsets:
#        150
#        16470
#        33977
#        51287
#        73552
#        90327
#        117927
#        132077
#        149445
#        170155
#        183495
#
# Disc length: 3011 seconds
#
# Revision: 0
# Processed by: cddbd v1.5.1PL0 Copyright (c) Steve Scherf et al.
# Submitted via: ExactAudioCopy v0.95a5
#
DISCID=980bc10b
DTITLE=The Dogs D'amour - Happy Ever After
DYEAR=1900
DGENRE=
TTITLE0=Get By
TTITLE1=Flying Girl
TTITLE2=Angelina
TTITLE3=Singin'
TTITLE4=Spooks
TTITLE5=Even Angels Have Bad Days
TTITLE6=Quick Joy Small
TTITLE7=Fool
TTITLE8=Roll Over
TTITLE9=Ever Do Right
TTITLE10=Little Boy You
EXTD=
EXTT0=
EXTT1=
EXTT2=
EXTT3=
EXTT4=
EXTT5=
EXTT6=
EXTT7=
EXTT8=
EXTT9=
EXTT10=
PLAYORDER=
